# xmcd
#
# Track frame offsets: 
#        150
#        11365
#        23627
#        36092
#        49662
#        62720
#        74427
#        84757
#        94625
#        106895
#        121507
#        140340
#        153592
#        170912
#
# Disc length: 2454 seconds
#
# Revision: 1
# Processed by: cddbd v1.5.2PL0 Copyright (c) Steve Scherf et al.
# Submitted via: ExactAudioCopyFreeDBPlugin 1.0
#
DISCID=a709940e
DTITLE=John Lee Hooker - Boom Boom
DYEAR=1999
DGENRE=Blues
TTITLE0=Boom Boom
TTITLE1=I'm In The Mood
TTITLE2=I'm So Excited
TTITLE3=Hobo Blues
TTITLE4=Don't Look Back
TTITLE5=Boogie Chillun
TTITLE6=Big Legs, Tight Skirts
TTITLE7=Dimples
TTITLE8=Crawlin' King Snake
TTITLE9=Sugar Mama (Live)
TTITLE10=Shake It Baby
TTITLE11=One Bourbon One Scotch One Beer (Live)
TTITLE12=Blues Before Sunrise
TTITLE13=Whiskey And Women
EXTD=
EXTT0=
EXTT1=
EXTT2=
EXTT3=
EXTT4=
EXTT5=
EXTT6=
EXTT7=
EXTT8=
EXTT9=
EXTT10=
EXTT11=
EXTT12=
EXTT13=
PLAYORDER=
